<mxfile host="app.diagrams.net" modified="2024-07-26T01:46:59.406Z" agent="Mozilla/5.0 (Windows NT 10.0; Win64; x64) AppleWebKit/537.36 (KHTML, like Gecko) Chrome/127.0.0.0 Safari/537.36" etag="LwpCkkLJe7raNw-ekYP4" version="24.2.5" type="device">
  <diagram name="ページ1" id="eU3ZysWdC4PO4J6PFHaD">
    <mxGraphModel dx="1949" dy="2183" grid="1" gridSize="10" guides="1" tooltips="1" connect="1" arrows="1" fold="1" page="1" pageScale="1" pageWidth="827" pageHeight="1169" math="0" shadow="0">
      <root>
        <mxCell id="0" />
        <mxCell id="1" parent="0" />
        <mxCell id="7r3bxNbprVXeO8BNkF2D-72" value="End" style="whiteSpace=wrap;strokeWidth=2;" vertex="1" parent="1">
          <mxGeometry x="60" y="130" width="41" height="34" as="geometry" />
        </mxCell>
        <mxCell id="7r3bxNbprVXeO8BNkF2D-73" value="Initialize comfort_model_type loop" style="whiteSpace=wrap;strokeWidth=2;" vertex="1" parent="1">
          <mxGeometry x="240" y="88" width="139" height="34" as="geometry" />
        </mxCell>
        <mxCell id="7r3bxNbprVXeO8BNkF2D-74" value="Initialize system loop" style="whiteSpace=wrap;strokeWidth=2;" vertex="1" parent="1">
          <mxGeometry x="450" y="88" width="146" height="34" as="geometry" />
        </mxCell>
        <mxCell id="7r3bxNbprVXeO8BNkF2D-75" value="System == 1?" style="rhombus;strokeWidth=2;whiteSpace=wrap;" vertex="1" parent="1">
          <mxGeometry x="647" y="35" width="140" height="140" as="geometry" />
        </mxCell>
        <mxCell id="7r3bxNbprVXeO8BNkF2D-76" value="Set path_idf to VAV file" style="whiteSpace=wrap;strokeWidth=2;" vertex="1" parent="1">
          <mxGeometry x="872" y="46" width="182" height="34" as="geometry" />
        </mxCell>
        <mxCell id="7r3bxNbprVXeO8BNkF2D-77" value="Set path_idf to Hybrid file" style="whiteSpace=wrap;strokeWidth=2;" vertex="1" parent="1">
          <mxGeometry x="861" y="130" width="203" height="34" as="geometry" />
        </mxCell>
        <mxCell id="7r3bxNbprVXeO8BNkF2D-78" value="Initialize opt loop" style="whiteSpace=wrap;strokeWidth=2;" vertex="1" parent="1">
          <mxGeometry x="1114" y="88" width="142" height="34" as="geometry" />
        </mxCell>
        <mxCell id="7r3bxNbprVXeO8BNkF2D-79" value="opt == 0?" style="rhombus;strokeWidth=2;whiteSpace=wrap;" vertex="1" parent="1">
          <mxGeometry x="1306" y="49" width="114" height="114" as="geometry" />
        </mxCell>
        <mxCell id="7r3bxNbprVXeO8BNkF2D-80" value="Set comfort_model_range to 3" style="whiteSpace=wrap;strokeWidth=2;" vertex="1" parent="1">
          <mxGeometry x="1501" y="46" width="234" height="34" as="geometry" />
        </mxCell>
        <mxCell id="7r3bxNbprVXeO8BNkF2D-81" value="Set comfort_model_range to 1:3" style="whiteSpace=wrap;strokeWidth=2;" vertex="1" parent="1">
          <mxGeometry x="1494" y="130" width="248" height="34" as="geometry" />
        </mxCell>
        <mxCell id="7r3bxNbprVXeO8BNkF2D-82" value="Initialize comfort_model loop" style="whiteSpace=wrap;strokeWidth=2;" vertex="1" parent="1">
          <mxGeometry x="1792" y="88" width="228" height="34" as="geometry" />
        </mxCell>
        <mxCell id="7r3bxNbprVXeO8BNkF2D-83" value="Initialize week_ini and day loop" style="whiteSpace=wrap;strokeWidth=2;" vertex="1" parent="1">
          <mxGeometry x="2070" y="88" width="243" height="34" as="geometry" />
        </mxCell>
        <mxCell id="7r3bxNbprVXeO8BNkF2D-84" value="Calculate week and check if week &amp;lt;= 5" style="whiteSpace=wrap;strokeWidth=2;" vertex="1" parent="1">
          <mxGeometry x="2363" y="88" width="314" height="34" as="geometry" />
        </mxCell>
        <mxCell id="7r3bxNbprVXeO8BNkF2D-85" value="Update Nday" style="whiteSpace=wrap;strokeWidth=2;" vertex="1" parent="1">
          <mxGeometry x="2751" y="88" width="108" height="34" as="geometry" />
        </mxCell>
        <mxCell id="7r3bxNbprVXeO8BNkF2D-86" value="Read IDF file" style="whiteSpace=wrap;strokeWidth=2;" vertex="1" parent="1">
          <mxGeometry x="2909" y="88" width="106" height="34" as="geometry" />
        </mxCell>
        <mxCell id="7r3bxNbprVXeO8BNkF2D-87" value="Read occupant data" style="whiteSpace=wrap;strokeWidth=2;" vertex="1" parent="1">
          <mxGeometry x="3065" y="88" width="158" height="34" as="geometry" />
        </mxCell>
        <mxCell id="7r3bxNbprVXeO8BNkF2D-88" value="Update Sch_Occupancy_Target schedule" style="whiteSpace=wrap;strokeWidth=2;" vertex="1" parent="1">
          <mxGeometry x="3273" y="88" width="303" height="34" as="geometry" />
        </mxCell>
        <mxCell id="7r3bxNbprVXeO8BNkF2D-89" value="zone_index == 1?" style="rhombus;strokeWidth=2;whiteSpace=wrap;" vertex="1" parent="1">
          <mxGeometry x="3626" y="20" width="171" height="171" as="geometry" />
        </mxCell>
        <mxCell id="7r3bxNbprVXeO8BNkF2D-90" value="Set occupancy parameters for interior zone" style="whiteSpace=wrap;strokeWidth=2;" vertex="1" parent="1">
          <mxGeometry x="3879" y="46" width="327" height="34" as="geometry" />
        </mxCell>
        <mxCell id="7r3bxNbprVXeO8BNkF2D-91" value="Set occupancy parameters for perimeter zone" style="whiteSpace=wrap;strokeWidth=2;" vertex="1" parent="1">
          <mxGeometry x="3871" y="130" width="345" height="34" as="geometry" />
        </mxCell>
        <mxCell id="7r3bxNbprVXeO8BNkF2D-92" value="Update People Core_Mid1" style="whiteSpace=wrap;strokeWidth=2;" vertex="1" parent="1">
          <mxGeometry x="4271" y="46" width="199" height="34" as="geometry" />
        </mxCell>
        <mxCell id="7r3bxNbprVXeO8BNkF2D-93" value="Update People Zone_Mid_E" style="whiteSpace=wrap;strokeWidth=2;" vertex="1" parent="1">
          <mxGeometry x="4266" y="130" width="210" height="34" as="geometry" />
        </mxCell>
        <mxCell id="7r3bxNbprVXeO8BNkF2D-94" value="Update other schedules" style="whiteSpace=wrap;strokeWidth=2;" vertex="1" parent="1">
          <mxGeometry x="4525" y="88" width="185" height="34" as="geometry" />
        </mxCell>
        <mxCell id="7r3bxNbprVXeO8BNkF2D-95" value="opt == 0?" style="rhombus;strokeWidth=2;whiteSpace=wrap;" vertex="1" parent="1">
          <mxGeometry x="4760" y="49" width="114" height="114" as="geometry" />
        </mxCell>
        <mxCell id="7r3bxNbprVXeO8BNkF2D-96" value="Set tasp values based on system" style="whiteSpace=wrap;strokeWidth=2;" vertex="1" parent="1">
          <mxGeometry x="4948" y="130" width="245" height="34" as="geometry" />
        </mxCell>
        <mxCell id="7r3bxNbprVXeO8BNkF2D-97" value="Continue to next steps" style="whiteSpace=wrap;strokeWidth=2;" vertex="1" parent="1">
          <mxGeometry x="6901" y="130" width="178" height="34" as="geometry" />
        </mxCell>
        <mxCell id="7r3bxNbprVXeO8BNkF2D-98" value="Update IDF file with tasp values" style="whiteSpace=wrap;strokeWidth=2;" vertex="1" parent="1">
          <mxGeometry x="5243" y="130" width="244" height="34" as="geometry" />
        </mxCell>
        <mxCell id="7r3bxNbprVXeO8BNkF2D-99" value="Save IDF file" style="whiteSpace=wrap;strokeWidth=2;" vertex="1" parent="1">
          <mxGeometry x="5537" y="130" width="104" height="34" as="geometry" />
        </mxCell>
        <mxCell id="7r3bxNbprVXeO8BNkF2D-100" value="Run simulation" style="whiteSpace=wrap;strokeWidth=2;" vertex="1" parent="1">
          <mxGeometry x="5691" y="130" width="121" height="34" as="geometry" />
        </mxCell>
        <mxCell id="7r3bxNbprVXeO8BNkF2D-101" value="Get energy consumption" style="whiteSpace=wrap;strokeWidth=2;" vertex="1" parent="1">
          <mxGeometry x="5882" y="130" width="190" height="34" as="geometry" />
        </mxCell>
        <mxCell id="7r3bxNbprVXeO8BNkF2D-102" value="Get discomfort level" style="whiteSpace=wrap;strokeWidth=2;" vertex="1" parent="1">
          <mxGeometry x="6122" y="130" width="162" height="34" as="geometry" />
        </mxCell>
        <mxCell id="7r3bxNbprVXeO8BNkF2D-103" value="Create population data frame" style="whiteSpace=wrap;strokeWidth=2;" vertex="1" parent="1">
          <mxGeometry x="6334" y="130" width="229" height="34" as="geometry" />
        </mxCell>
        <mxCell id="7r3bxNbprVXeO8BNkF2D-104" value="Save population data as pareto" style="whiteSpace=wrap;strokeWidth=2;" vertex="1" parent="1">
          <mxGeometry x="6613" y="130" width="238" height="34" as="geometry" />
        </mxCell>
        <mxCell id="7r3bxNbprVXeO8BNkF2D-105" value="" style="startArrow=none;endArrow=block;exitX=0.818257115139929;exitY=-0.011488970588235295;entryX=0.0011660447761194029;entryY=0.5119485294117647;rounded=0;edgeStyle=orthogonalEdgeStyle;" edge="1" parent="1" source="7r3bxNbprVXeO8BNkF2D-72" target="7r3bxNbprVXeO8BNkF2D-73">
          <mxGeometry relative="1" as="geometry" />
        </mxCell>
        <mxCell id="7r3bxNbprVXeO8BNkF2D-106" value="" style="startArrow=none;endArrow=block;exitX=1.0009328358208955;exitY=0.5119485294117647;entryX=0.0014970059880239522;entryY=0.5119485294117647;rounded=0;edgeStyle=orthogonalEdgeStyle;" edge="1" parent="1" source="7r3bxNbprVXeO8BNkF2D-73" target="7r3bxNbprVXeO8BNkF2D-74">
          <mxGeometry relative="1" as="geometry" />
        </mxCell>
        <mxCell id="7r3bxNbprVXeO8BNkF2D-107" value="" style="startArrow=none;endArrow=block;exitX=1.003882859281437;exitY=0.5119485294117647;entryX=-0.0025111607142857145;entryY=0.5029017857142857;rounded=0;edgeStyle=orthogonalEdgeStyle;" edge="1" parent="1" source="7r3bxNbprVXeO8BNkF2D-74" target="7r3bxNbprVXeO8BNkF2D-75">
          <mxGeometry relative="1" as="geometry" />
        </mxCell>
        <mxCell id="7r3bxNbprVXeO8BNkF2D-108" value="Yes" style="startArrow=none;endArrow=block;exitX=0.9991071428571429;exitY=0.3066878149384959;entryX=-0.0003648695054945055;entryY=0.5119485294117647;rounded=0;edgeStyle=orthogonalEdgeStyle;" edge="1" parent="1" source="7r3bxNbprVXeO8BNkF2D-75" target="7r3bxNbprVXeO8BNkF2D-76">
          <mxGeometry relative="1" as="geometry" />
        </mxCell>
        <mxCell id="7r3bxNbprVXeO8BNkF2D-109" value="No" style="startArrow=none;endArrow=block;exitX=0.9991071428571429;exitY=0.6991157564900755;entryX=0.00023091133004926107;entryY=0.5119485294117647;rounded=0;edgeStyle=orthogonalEdgeStyle;" edge="1" parent="1" source="7r3bxNbprVXeO8BNkF2D-75" target="7r3bxNbprVXeO8BNkF2D-77">
          <mxGeometry relative="1" as="geometry" />
        </mxCell>
        <mxCell id="7r3bxNbprVXeO8BNkF2D-110" value="" style="startArrow=none;endArrow=block;exitX=0.9971883585164835;exitY=0.5119485294117647;entryX=0.2290972396881283;entryY=0.011948529411764705;rounded=0;edgeStyle=orthogonalEdgeStyle;" edge="1" parent="1" source="7r3bxNbprVXeO8BNkF2D-76" target="7r3bxNbprVXeO8BNkF2D-78">
          <mxGeometry relative="1" as="geometry" />
        </mxCell>
        <mxCell id="7r3bxNbprVXeO8BNkF2D-111" value="" style="startArrow=none;endArrow=block;exitX=1.0018472906403941;exitY=0.5119485294117647;entryX=0.2290972396881283;entryY=1.0119485294117647;rounded=0;edgeStyle=orthogonalEdgeStyle;" edge="1" parent="1" source="7r3bxNbprVXeO8BNkF2D-77" target="7r3bxNbprVXeO8BNkF2D-78">
          <mxGeometry relative="1" as="geometry" />
        </mxCell>
        <mxCell id="7r3bxNbprVXeO8BNkF2D-112" value="" style="curved=1;startArrow=none;endArrow=block;exitX=1.0029709507042253;exitY=0.5119485294117647;entryX=0.003700657894736842;entryY=0.4947916666666667;rounded=0;" edge="1" parent="1" source="7r3bxNbprVXeO8BNkF2D-78" target="7r3bxNbprVXeO8BNkF2D-79">
          <mxGeometry relative="1" as="geometry">
            <Array as="points" />
          </mxGeometry>
        </mxCell>
        <mxCell id="7r3bxNbprVXeO8BNkF2D-113" value="Yes" style="startArrow=none;endArrow=block;exitX=1.0006853070175439;exitY=0.27185724050893395;entryX=0.0016359508547008547;entryY=0.5119485294117647;rounded=0;edgeStyle=orthogonalEdgeStyle;" edge="1" parent="1" source="7r3bxNbprVXeO8BNkF2D-79" target="7r3bxNbprVXeO8BNkF2D-80">
          <mxGeometry relative="1" as="geometry" />
        </mxCell>
        <mxCell id="7r3bxNbprVXeO8BNkF2D-114" value="No" style="startArrow=none;endArrow=block;exitX=1.0006853070175439;exitY=0.7177260928243995;entryX=0.0010080645161290322;entryY=0.5119485294117647;rounded=0;edgeStyle=orthogonalEdgeStyle;" edge="1" parent="1" source="7r3bxNbprVXeO8BNkF2D-79" target="7r3bxNbprVXeO8BNkF2D-81">
          <mxGeometry relative="1" as="geometry" />
        </mxCell>
        <mxCell id="7r3bxNbprVXeO8BNkF2D-115" value="" style="startArrow=none;endArrow=block;exitX=0.9996327457264957;exitY=0.5119485294117647;entryX=0.2530145350355052;entryY=0.011948529411764705;rounded=0;edgeStyle=orthogonalEdgeStyle;" edge="1" parent="1" source="7r3bxNbprVXeO8BNkF2D-80" target="7r3bxNbprVXeO8BNkF2D-82">
          <mxGeometry relative="1" as="geometry" />
        </mxCell>
        <mxCell id="7r3bxNbprVXeO8BNkF2D-116" value="" style="startArrow=none;endArrow=block;exitX=1.0001890120967742;exitY=0.5119485294117647;entryX=0.2530145350355052;entryY=1.0119485294117647;rounded=0;edgeStyle=orthogonalEdgeStyle;" edge="1" parent="1" source="7r3bxNbprVXeO8BNkF2D-81" target="7r3bxNbprVXeO8BNkF2D-82">
          <mxGeometry relative="1" as="geometry" />
        </mxCell>
        <mxCell id="7r3bxNbprVXeO8BNkF2D-117" value="" style="curved=1;startArrow=none;endArrow=block;exitX=0.998766447368421;exitY=0.5119485294117647;entryX=-0.0011574074074074073;entryY=0.5119485294117647;rounded=0;" edge="1" parent="1" source="7r3bxNbprVXeO8BNkF2D-82" target="7r3bxNbprVXeO8BNkF2D-83">
          <mxGeometry relative="1" as="geometry">
            <Array as="points" />
          </mxGeometry>
        </mxCell>
        <mxCell id="7r3bxNbprVXeO8BNkF2D-118" value="" style="curved=1;startArrow=none;endArrow=block;exitX=0.9980388374485597;exitY=0.5119485294117647;entryX=-0.0015177149681528663;entryY=0.5119485294117647;rounded=0;" edge="1" parent="1" source="7r3bxNbprVXeO8BNkF2D-83" target="7r3bxNbprVXeO8BNkF2D-84">
          <mxGeometry relative="1" as="geometry">
            <Array as="points" />
          </mxGeometry>
        </mxCell>
        <mxCell id="7r3bxNbprVXeO8BNkF2D-119" value="Yes" style="curved=1;startArrow=none;endArrow=block;exitX=0.998780851910828;exitY=0.5119485294117647;entryX=-0.001953125;entryY=0.5119485294117647;rounded=0;" edge="1" parent="1" source="7r3bxNbprVXeO8BNkF2D-84" target="7r3bxNbprVXeO8BNkF2D-85">
          <mxGeometry relative="1" as="geometry">
            <Array as="points" />
          </mxGeometry>
        </mxCell>
        <mxCell id="7r3bxNbprVXeO8BNkF2D-120" value="" style="curved=1;startArrow=none;endArrow=block;exitX=0.9983362268518519;exitY=0.5119485294117647;entryX=-0.0016951650943396227;entryY=0.5119485294117647;rounded=0;" edge="1" parent="1" source="7r3bxNbprVXeO8BNkF2D-85" target="7r3bxNbprVXeO8BNkF2D-86">
          <mxGeometry relative="1" as="geometry">
            <Array as="points" />
          </mxGeometry>
        </mxCell>
        <mxCell id="7r3bxNbprVXeO8BNkF2D-121" value="" style="curved=1;startArrow=none;endArrow=block;exitX=1.0002948113207548;exitY=0.5119485294117647;entryX=0.00019778481012658228;entryY=0.5119485294117647;rounded=0;" edge="1" parent="1" source="7r3bxNbprVXeO8BNkF2D-86" target="7r3bxNbprVXeO8BNkF2D-87">
          <mxGeometry relative="1" as="geometry">
            <Array as="points" />
          </mxGeometry>
        </mxCell>
        <mxCell id="7r3bxNbprVXeO8BNkF2D-122" value="" style="curved=1;startArrow=none;endArrow=block;exitX=0.997626582278481;exitY=0.5119485294117647;entryX=-0.0012376237623762376;entryY=0.5119485294117647;rounded=0;" edge="1" parent="1" source="7r3bxNbprVXeO8BNkF2D-87" target="7r3bxNbprVXeO8BNkF2D-88">
          <mxGeometry relative="1" as="geometry">
            <Array as="points" />
          </mxGeometry>
        </mxCell>
        <mxCell id="7r3bxNbprVXeO8BNkF2D-123" value="" style="curved=1;startArrow=none;endArrow=block;exitX=0.9986592409240924;exitY=0.5119485294117647;entryX=-0.0023757309941520467;entryY=0.4994517543859649;rounded=0;" edge="1" parent="1" source="7r3bxNbprVXeO8BNkF2D-88" target="7r3bxNbprVXeO8BNkF2D-89">
          <mxGeometry relative="1" as="geometry">
            <Array as="points" />
          </mxGeometry>
        </mxCell>
        <mxCell id="7r3bxNbprVXeO8BNkF2D-124" value="Yes" style="startArrow=none;endArrow=block;exitX=0.9965277777777778;exitY=0.32820023122894293;entryX=0.0013976490825688074;entryY=0.5119485294117647;rounded=0;edgeStyle=orthogonalEdgeStyle;" edge="1" parent="1" source="7r3bxNbprVXeO8BNkF2D-89" target="7r3bxNbprVXeO8BNkF2D-90">
          <mxGeometry relative="1" as="geometry" />
        </mxCell>
        <mxCell id="7r3bxNbprVXeO8BNkF2D-125" value="No" style="startArrow=none;endArrow=block;exitX=0.9965277777777778;exitY=0.6707032775429869;entryX=-0.0012228260869565218;entryY=0.5119485294117647;rounded=0;edgeStyle=orthogonalEdgeStyle;" edge="1" parent="1" source="7r3bxNbprVXeO8BNkF2D-89" target="7r3bxNbprVXeO8BNkF2D-91">
          <mxGeometry relative="1" as="geometry" />
        </mxCell>
        <mxCell id="7r3bxNbprVXeO8BNkF2D-126" value="" style="curved=1;startArrow=none;endArrow=block;exitX=1.002114392201835;exitY=0.5119485294117647;entryX=-0.0002551821608040201;entryY=0.5119485294117647;rounded=0;" edge="1" parent="1" source="7r3bxNbprVXeO8BNkF2D-90" target="7r3bxNbprVXeO8BNkF2D-92">
          <mxGeometry relative="1" as="geometry">
            <Array as="points" />
          </mxGeometry>
        </mxCell>
        <mxCell id="7r3bxNbprVXeO8BNkF2D-127" value="" style="curved=1;startArrow=none;endArrow=block;exitX=0.9987545289855072;exitY=0.5119485294117647;entryX=-0.0020461309523809525;entryY=0.5119485294117647;rounded=0;" edge="1" parent="1" source="7r3bxNbprVXeO8BNkF2D-91" target="7r3bxNbprVXeO8BNkF2D-93">
          <mxGeometry relative="1" as="geometry">
            <Array as="points" />
          </mxGeometry>
        </mxCell>
        <mxCell id="7r3bxNbprVXeO8BNkF2D-128" value="" style="startArrow=none;endArrow=block;exitX=0.9991166771356784;exitY=0.5119485294117647;entryX=0.2438686454311431;entryY=0.011948529411764705;rounded=0;edgeStyle=orthogonalEdgeStyle;" edge="1" parent="1" source="7r3bxNbprVXeO8BNkF2D-92" target="7r3bxNbprVXeO8BNkF2D-94">
          <mxGeometry relative="1" as="geometry" />
        </mxCell>
        <mxCell id="7r3bxNbprVXeO8BNkF2D-129" value="" style="startArrow=none;endArrow=block;exitX=0.9962053571428572;exitY=0.5119485294117647;entryX=0.2438686454311431;entryY=1.0119485294117647;rounded=0;edgeStyle=orthogonalEdgeStyle;" edge="1" parent="1" source="7r3bxNbprVXeO8BNkF2D-93" target="7r3bxNbprVXeO8BNkF2D-94">
          <mxGeometry relative="1" as="geometry" />
        </mxCell>
        <mxCell id="7r3bxNbprVXeO8BNkF2D-130" value="" style="curved=1;startArrow=none;endArrow=block;exitX=1.0005912162162163;exitY=0.5119485294117647;entryX=0.0009594298245614035;entryY=0.4947916666666667;rounded=0;" edge="1" parent="1" source="7r3bxNbprVXeO8BNkF2D-94" target="7r3bxNbprVXeO8BNkF2D-95">
          <mxGeometry relative="1" as="geometry">
            <Array as="points" />
          </mxGeometry>
        </mxCell>
        <mxCell id="7r3bxNbprVXeO8BNkF2D-131" value="Yes" style="startArrow=none;endArrow=block;exitX=0.9979440789473685;exitY=0.7177260928243995;entryX=-0.00025510204081632655;entryY=0.5119485294117647;rounded=0;edgeStyle=orthogonalEdgeStyle;" edge="1" parent="1" source="7r3bxNbprVXeO8BNkF2D-95" target="7r3bxNbprVXeO8BNkF2D-96">
          <mxGeometry relative="1" as="geometry" />
        </mxCell>
        <mxCell id="7r3bxNbprVXeO8BNkF2D-132" value="No" style="startArrow=none;endArrow=block;exitX=0.9979440789473685;exitY=0.356784640949975;entryX=0.33792902914325845;entryY=0.011948529411764705;rounded=0;edgeStyle=orthogonalEdgeStyle;" edge="1" parent="1" source="7r3bxNbprVXeO8BNkF2D-95" target="7r3bxNbprVXeO8BNkF2D-97">
          <mxGeometry relative="1" as="geometry" />
        </mxCell>
        <mxCell id="7r3bxNbprVXeO8BNkF2D-133" value="" style="curved=1;startArrow=none;endArrow=block;exitX=0.999234693877551;exitY=0.5119485294117647;entryX=-0.0007684426229508197;entryY=0.5119485294117647;rounded=0;" edge="1" parent="1" source="7r3bxNbprVXeO8BNkF2D-96" target="7r3bxNbprVXeO8BNkF2D-98">
          <mxGeometry relative="1" as="geometry">
            <Array as="points" />
          </mxGeometry>
        </mxCell>
        <mxCell id="7r3bxNbprVXeO8BNkF2D-134" value="" style="curved=1;startArrow=none;endArrow=block;exitX=1.001248719262295;exitY=0.5119485294117647;entryX=0.0029296875;entryY=0.5119485294117647;rounded=0;" edge="1" parent="1" source="7r3bxNbprVXeO8BNkF2D-98" target="7r3bxNbprVXeO8BNkF2D-99">
          <mxGeometry relative="1" as="geometry">
            <Array as="points" />
          </mxGeometry>
        </mxCell>
        <mxCell id="7r3bxNbprVXeO8BNkF2D-135" value="" style="curved=1;startArrow=none;endArrow=block;exitX=1.0045072115384615;exitY=0.5119485294117647;entryX=0.0038739669421487604;entryY=0.5119485294117647;rounded=0;" edge="1" parent="1" source="7r3bxNbprVXeO8BNkF2D-99" target="7r3bxNbprVXeO8BNkF2D-100">
          <mxGeometry relative="1" as="geometry">
            <Array as="points" />
          </mxGeometry>
        </mxCell>
        <mxCell id="7r3bxNbprVXeO8BNkF2D-136" value="" style="curved=1;startArrow=none;endArrow=block;exitX=1.0025180785123966;exitY=0.5119485294117647;entryX=-0.002549342105263158;entryY=0.5119485294117647;rounded=0;" edge="1" parent="1" source="7r3bxNbprVXeO8BNkF2D-100" target="7r3bxNbprVXeO8BNkF2D-101">
          <mxGeometry relative="1" as="geometry">
            <Array as="points" />
          </mxGeometry>
        </mxCell>
        <mxCell id="7r3bxNbprVXeO8BNkF2D-137" value="" style="curved=1;startArrow=none;endArrow=block;exitX=0.9975740131578947;exitY=0.5119485294117647;entryX=-0.0028452932098765433;entryY=0.5119485294117647;rounded=0;" edge="1" parent="1" source="7r3bxNbprVXeO8BNkF2D-101" target="7r3bxNbprVXeO8BNkF2D-102">
          <mxGeometry relative="1" as="geometry">
            <Array as="points" />
          </mxGeometry>
        </mxCell>
        <mxCell id="7r3bxNbprVXeO8BNkF2D-138" value="" style="curved=1;startArrow=none;endArrow=block;exitX=0.9992766203703703;exitY=0.5119485294117647;entryX=-0.000511735807860262;entryY=0.5119485294117647;rounded=0;" edge="1" parent="1" source="7r3bxNbprVXeO8BNkF2D-102" target="7r3bxNbprVXeO8BNkF2D-103">
          <mxGeometry relative="1" as="geometry">
            <Array as="points" />
          </mxGeometry>
        </mxCell>
        <mxCell id="7r3bxNbprVXeO8BNkF2D-139" value="" style="curved=1;startArrow=none;endArrow=block;exitX=0.9988741812227074;exitY=0.5119485294117647;entryX=-0.0010832457983193278;entryY=0.5119485294117647;rounded=0;" edge="1" parent="1" source="7r3bxNbprVXeO8BNkF2D-103" target="7r3bxNbprVXeO8BNkF2D-104">
          <mxGeometry relative="1" as="geometry">
            <Array as="points" />
          </mxGeometry>
        </mxCell>
        <mxCell id="7r3bxNbprVXeO8BNkF2D-140" value="" style="curved=1;startArrow=none;endArrow=block;exitX=0.999015231092437;exitY=0.5119485294117647;entryX=-0.0013167134831460674;entryY=0.5119485294117647;rounded=0;" edge="1" parent="1" source="7r3bxNbprVXeO8BNkF2D-104" target="7r3bxNbprVXeO8BNkF2D-97">
          <mxGeometry relative="1" as="geometry">
            <Array as="points" />
          </mxGeometry>
        </mxCell>
        <mxCell id="7r3bxNbprVXeO8BNkF2D-141" value="" style="startArrow=none;endArrow=block;entryX=0.782202743902439;entryY=0.9885110294117647;rounded=0;edgeStyle=orthogonalEdgeStyle;exitX=1;exitY=0.5;exitDx=0;exitDy=0;" edge="1" parent="1" source="7r3bxNbprVXeO8BNkF2D-97">
          <mxGeometry relative="1" as="geometry">
            <Array as="points">
              <mxPoint x="7089" y="147" />
              <mxPoint x="7089" y="310" />
              <mxPoint x="92" y="310" />
            </Array>
            <mxPoint x="6980" y="220" as="sourcePoint" />
            <mxPoint x="92.34242709313276" y="210" as="targetPoint" />
          </mxGeometry>
        </mxCell>
      </root>
    </mxGraphModel>
  </diagram>
</mxfile>
